<?xml version="1.0" encoding="utf-8"?>
<!-- Svg Vector Icons : http://www.onlinewebfonts.com/icon -->
<!DOCTYPE svg PUBLIC "-//W3C//DTD SVG 1.1//EN" "http://www.w3.org/Graphics/SVG/1.1/DTD/svg11.dtd">
<svg version="1.1" xmlns="http://www.w3.org/2000/svg" xmlns:xlink="http://www.w3.org/1999/xlink" x="0px" y="0px" viewBox="0 0 1000 1000" enable-background="new 0 0 1000 1000" xml:space="preserve">
<metadata> Svg Vector Icons : http://www.onlinewebfonts.com/icon </metadata>
<g><g><g><path d="M641,871.2H84.2V128.8H641v126.5l74.2-82.7v-42.4c0-41.7-33.8-75.6-75.6-75.6H85.6C43.8,54.6,10,88.4,10,130.2v739.7c0,41.7,33.8,75.6,75.6,75.6h554.1c41.7,0,75.6-33.8,75.6-75.6V626.2L641,709V871.2L641,871.2z"/><path d="M578,264.9c0-20.5-16.6-37.1-37.1-37.1h-357c-20.5,0-37.1,16.6-37.1,37.1c0,20.5,16.6,37.1,37.1,37.1h357C561.4,302,578,285.4,578,264.9z"/><path d="M526.9,383.3h-343c-20.5,0-37.1,16.6-37.1,37.1c0,20.5,16.6,37.1,37.1,37.1h276.4L526.9,383.3z"/><path d="M388.2,537.1H183.9c-20.5,0-37.1,16.7-37.1,37.2c0,20.4,16.6,37.1,37.1,37.1h162.2L388.2,537.1z"/><path d="M146.8,729.8c0,20.5,16.6,37.1,37.1,37.1h118.8c0.5-5.3,1.2-8.2,2.4-12.2l17.9-62H183.9C163.4,692.7,146.8,709.3,146.8,729.8z"/><path d="M703.9,268.5L444.7,557.4l-20,22.4l142.7,128l20-22.4l259.2-288.9l23.4-26.1l-142.7-128L703.9,268.5z M691.6,399l-170,189.5c-2.1,2.4-5.1,3.8-8.3,4c-3.2,0.2-6.3-0.9-8.6-3l-8.4-7.6c-4.9-4.5-5.3-12-0.9-17l170-189.5c2.1-2.4,5.1-3.8,8.3-4c3.1-0.1,6.3,0.9,8.7,3.1l8.4,7.6C695.7,386.4,696,394.1,691.6,399z M741,309l8.4,7.6c4.9,4.4,5.3,12,0.9,17l-2.1,2.4L736,349.4l-0.5,0.6c-2.1,2.4-5.1,3.8-8.3,4c-3.2,0.2-6.3-0.9-8.7-3.1l-8.5-7.6c-2.4-2.1-3.8-5.1-4-8.3c-0.2-3.2,0.9-6.3,3.1-8.7l14.7-16.5C728.5,304.9,736.1,304.5,741,309z"/><polygon points="751.9,215.1 741.1,227.1 883.8,355.1 894.6,343 918.8,316 776.2,188 "/><path d="M989.9,218.5c-0.6-11-5.5-21.3-13.7-28.7l-80.8-72.5c-8.2-7.4-19-11.1-30-10.6c-11,0.6-21.3,5.5-28.6,13.8L789,173.6l142.7,127.9l47.6-53.1C986.7,240.3,990.5,229.5,989.9,218.5z M928.8,248.3l-86.5-77.5l25-27.8l86.4,77.5L928.8,248.3z"/><path d="M364.6,790.3c5.9,5.3,14.3,6.7,21.6,3.7l164-67.2l-142.6-128l-49.1,170.3C356.4,776.8,358.7,785,364.6,790.3z M420.7,644.3l82.9,74.4l-64.4,26.4l-37.7-33.8L420.7,644.3z"/></g></g><g></g><g></g><g></g><g></g><g></g><g></g><g></g><g></g><g></g><g></g><g></g><g></g><g></g><g></g><g></g></g>
</svg>
